Roboto-Delta-YOPQ2.ufo
<glyph name="ampersand" format="2">
  <advance width="1280"/>
  <unicode hex="0026"/>
  <outline>
    <contour>
      <point x="80" y="380" type="qcurve" smooth="yes"/>
      <point x="80" y="513"/>
      <point x="315" y="692"/>
      <point x="484" y="799" type="qcurve" smooth="yes"/>
      <point x="598" y="871" type="line" smooth="yes"/>
      <point x="698" y="934"/>
      <point x="750" y="1114"/>
      <point x="750" y="1180" type="qcurve" smooth="yes"/>
      <point x="750" y="1317"/>
      <point x="651" y="1479"/>
      <point x="575" y="1479" type="qcurve" smooth="yes"/>
      <point x="494" y="1479"/>
      <point x="392" y="1317"/>
      <point x="392" y="1180" type="qcurve" smooth="yes"/>
      <point x="392" y="1090"/>
      <point x="472" y="960"/>
      <point x="570" y="840" type="qcurve" smooth="yes"/>
      <point x="1256" y="0" type="line"/>
      <point x="1034" y="0" type="line"/>
      <point x="430" y="740" type="line" smooth="yes"/>
      <point x="324" y="870"/>
      <point x="210" y="1060"/>
      <point x="210" y="1180" type="qcurve" smooth="yes"/>
      <point x="210" y="1300"/>
      <point x="423" y="1486"/>
      <point x="575" y="1486" type="qcurve" smooth="yes"/>
      <point x="727" y="1486"/>
      <point x="922" y="1309"/>
      <point x="922" y="1180" type="qcurve" smooth="yes"/>
      <point x="922" y="1104"/>
      <point x="750" y="958"/>
      <point x="609" y="869" type="qcurve" smooth="yes"/>
      <point x="495" y="797" type="line" smooth="yes"/>
      <point x="367" y="716"/>
      <point x="264" y="490"/>
      <point x="264" y="380" type="qcurve" smooth="yes"/>
      <point x="264" y="222"/>
      <point x="420" y="-13"/>
      <point x="550" y="-13" type="qcurve" smooth="yes"/>
      <point x="747" y="-13"/>
      <point x="990" y="382"/>
      <point x="990" y="674" type="qcurve"/>
      <point x="997" y="674" type="line"/>
      <point x="997" y="380"/>
      <point x="750" y="-20"/>
      <point x="550" y="-20" type="qcurve" smooth="yes"/>
      <point x="330" y="-20"/>
      <point x="80" y="205"/>
    </contour>
  </outline>
</glyph>
<glyph name="a" format="2">
  <advance width="1106"/>
  <unicode hex="0061"/>
  <anchor x="553" y="0" name="bottom"/>
  <anchor x="969" y="0" name="ogonek"/>
  <anchor x="553" y="1052" name="top"/>
  <outline>
    <contour>
      <point x="490" y="-20" type="qcurve" smooth="yes"/>
      <point x="300" y="-20"/>
      <point x="90" y="150"/>
      <point x="90" y="310" type="qcurve" smooth="yes"/>
      <point x="90" y="470"/>
      <point x="344" y="648"/>
      <point x="540" y="648" type="qcurve" smooth="yes"/>
      <point x="871" y="648" type="line"/>
      <point x="871" y="641" type="line"/>
      <point x="540" y="641" type="line" smooth="yes"/>
      <point x="395" y="641"/>
      <point x="276" y="464"/>
      <point x="276" y="320" type="qcurve" smooth="yes"/>
      <point x="276" y="158"/>
      <point x="376" y="-13"/>
      <point x="490" y="-13" type="qcurve" smooth="yes"/>
      <point x="600" y="-13"/>
      <point x="778" y="140"/>
      <point x="778" y="226" type="qcurve" smooth="yes"/>
      <point x="778" y="720" type="line" smooth="yes"/>
      <point x="778" y="920"/>
      <point x="680" y="1075"/>
      <point x="560" y="1075" type="qcurve" smooth="yes"/>
      <point x="440" y="1075"/>
      <point x="337" y="905"/>
      <point x="337" y="770" type="qcurve" smooth="yes"/>
      <point x="337" y="765" type="line"/>
      <point x="152" y="765" type="line"/>
      <point x="152" y="770" type="line" smooth="yes"/>
      <point x="152" y="895"/>
      <point x="375" y="1082"/>
      <point x="560" y="1082" type="qcurve" smooth="yes"/>
      <point x="755" y="1082"/>
      <point x="964" y="900"/>
      <point x="964" y="720" type="qcurve" smooth="yes"/>
      <point x="964" y="240" type="line" smooth="yes"/>
      <point x="964" y="175"/>
      <point x="984" y="60"/>
      <point x="1002" y="16" type="qcurve"/>
      <point x="1002" y="0" type="line"/>
      <point x="822" y="0" type="line"/>
      <point x="808" y="25"/>
      <point x="785" y="105"/>
      <point x="780" y="169" type="qcurve"/>
      <point x="761" y="98"/>
      <point x="587" y="-20"/>
    </contour>
  </outline>
</glyph>
<glyph name="p" format="2">
  <advance width="1170"/>
  <unicode hex="0070"/>
  <anchor x="642" y="0" name="bottom"/>
  <anchor x="642" y="1052" name="top"/>
  <outline>
    <contour>
      <point x="148" y="-416" type="line"/>
      <point x="148" y="1052" type="line"/>
      <point x="316" y="1052" type="line"/>
      <point x="324" y="915" type="line"/>
      <point x="334" y="915" type="line"/>
      <point x="334" y="-416" type="line"/>
    </contour>
    <contour>
      <point x="591" y="-13" type="qcurve" smooth="yes"/>
      <point x="749" y="-13"/>
      <point x="895" y="304"/>
      <point x="895" y="510" type="qcurve" smooth="yes"/>
      <point x="895" y="542" type="line" smooth="yes"/>
      <point x="895" y="774"/>
      <point x="727" y="1065"/>
      <point x="588" y="1065" type="qcurve" smooth="yes"/>
      <point x="464" y="1065"/>
      <point x="291" y="849"/>
      <point x="291" y="779" type="qcurve" smooth="yes"/>
      <point x="291" y="291" type="line" smooth="yes"/>
      <point x="291" y="193"/>
      <point x="474" y="-13"/>
    </contour>
    <contour>
      <point x="591" y="-20" type="qcurve" smooth="yes"/>
      <point x="455" y="-20"/>
      <point x="224" y="175"/>
      <point x="224" y="290" type="qcurve" smooth="yes"/>
      <point x="224" y="784" type="line" smooth="yes"/>
      <point x="224" y="875"/>
      <point x="441" y="1072"/>
      <point x="591" y="1072" type="qcurve" smooth="yes"/>
      <point x="845" y="1072"/>
      <point x="1085" y="772"/>
      <point x="1085" y="542" type="qcurve" smooth="yes"/>
      <point x="1085" y="510" type="line" smooth="yes"/>
      <point x="1085" y="280"/>
      <point x="838" y="-20"/>
    </contour>
  </outline>
</glyph>
<glyph name="q" format="2">
  <advance width="1169"/>
  <unicode hex="0071"/>
  <anchor x="585" y="0" name="bottom"/>
  <anchor x="585" y="1052" name="top"/>
  <outline>
    <contour>
      <point x="835" y="-416" type="line"/>
      <point x="835" y="915" type="line"/>
      <point x="845" y="915" type="line"/>
      <point x="853" y="1052" type="line"/>
      <point x="1021" y="1052" type="line"/>
      <point x="1021" y="-416" type="line"/>
    </contour>
    <contour>
      <point x="570" y="-13" type="qcurve" smooth="yes"/>
      <point x="705" y="-13"/>
      <point x="878" y="191"/>
      <point x="878" y="265" type="qcurve" smooth="yes"/>
      <point x="878" y="780" type="line" smooth="yes"/>
      <point x="878" y="883"/>
      <point x="710" y="1065"/>
      <point x="572" y="1065" type="qcurve" smooth="yes"/>
      <point x="404" y="1065"/>
      <point x="274" y="765"/>
      <point x="274" y="542" type="qcurve" smooth="yes"/>
      <point x="274" y="510" type="line" smooth="yes"/>
      <point x="274" y="287"/>
      <point x="408" y="-13"/>
    </contour>
    <contour>
      <point x="570" y="-20" type="qcurve" smooth="yes"/>
      <point x="331" y="-20"/>
      <point x="84" y="279"/>
      <point x="84" y="510" type="qcurve" smooth="yes"/>
      <point x="84" y="542" type="line" smooth="yes"/>
      <point x="84" y="773"/>
      <point x="324" y="1072"/>
      <point x="572" y="1072" type="qcurve" smooth="yes"/>
      <point x="728" y="1072"/>
      <point x="945" y="888"/>
      <point x="945" y="780" type="qcurve" smooth="yes"/>
      <point x="945" y="267" type="line" smooth="yes"/>
      <point x="945" y="180"/>
      <point x="714" y="-20"/>
    </contour>
  </outline>
</glyph>
<glyph name="ae" format="2">
  <advance width="1771"/>
  <unicode hex="00E6"/>
  <anchor x="892" y="1052" name="top"/>
  <outline>
    <contour>
      <point x="494" y="-20" type="qcurve" smooth="yes"/>
      <point x="300" y="-20"/>
      <point x="90" y="150"/>
      <point x="90" y="310" type="qcurve" smooth="yes"/>
      <point x="90" y="470"/>
      <point x="344" y="648"/>
      <point x="540" y="648" type="qcurve" smooth="yes"/>
      <point x="868" y="648" type="line"/>
      <point x="868" y="641" type="line"/>
      <point x="540" y="641" type="line" smooth="yes"/>
      <point x="385" y="641"/>
      <point x="276" y="464"/>
      <point x="276" y="320" type="qcurve" smooth="yes"/>
      <point x="276" y="154"/>
      <point x="379" y="-12"/>
      <point x="498" y="-12" type="qcurve" smooth="yes"/>
      <point x="621" y="-12"/>
      <point x="778" y="257"/>
      <point x="778" y="366" type="qcurve" smooth="yes"/>
      <point x="778" y="720" type="line" smooth="yes"/>
      <point x="778" y="866"/>
      <point x="680" y="1075"/>
      <point x="560" y="1075" type="qcurve" smooth="yes"/>
      <point x="440" y="1075"/>
      <point x="337" y="889"/>
      <point x="337" y="770" type="qcurve" smooth="yes"/>
      <point x="337" y="765" type="line"/>
      <point x="152" y="765" type="line"/>
      <point x="152" y="770" type="line" smooth="yes"/>
      <point x="152" y="895"/>
      <point x="375" y="1082"/>
      <point x="560" y="1082" type="qcurve" smooth="yes"/>
      <point x="729" y="1082"/>
      <point x="901" y="949"/>
      <point x="911" y="871" type="qcurve"/>
      <point x="931" y="950"/>
      <point x="1093" y="1082"/>
      <point x="1244" y="1082" type="qcurve" smooth="yes"/>
      <point x="1459" y="1082"/>
      <point x="1691" y="800"/>
      <point x="1691" y="560" type="qcurve" smooth="yes"/>
      <point x="1691" y="553" type="line"/>
      <point x="869" y="553" type="line"/>
      <point x="869" y="560" type="line"/>
      <point x="1504" y="560" type="line"/>
      <point x="1504" y="656" type="line" smooth="yes"/>
      <point x="1504" y="802"/>
      <point x="1376" y="1075"/>
      <point x="1244" y="1075" type="qcurve" smooth="yes"/>
      <point x="1101" y="1075"/>
      <point x="958" y="773"/>
      <point x="958" y="542" type="qcurve" smooth="yes"/>
      <point x="958" y="509" type="line" smooth="yes"/>
      <point x="958" y="301"/>
      <point x="1117" y="-24"/>
      <point x="1278" y="-24" type="qcurve" smooth="yes"/>
      <point x="1374" y="-24"/>
      <point x="1535" y="136"/>
      <point x="1563" y="270" type="qcurve"/>
      <point x="1683" y="175" type="line"/>
      <point x="1633" y="100"/>
      <point x="1424" y="-30"/>
      <point x="1278" y="-30" type="qcurve" smooth="yes"/>
      <point x="1129" y="-30"/>
      <point x="895" y="90"/>
      <point x="842" y="211" type="qcurve"/>
      <point x="802" y="99"/>
      <point x="604" y="-20"/>
    </contour>
  </outline>
</glyph>
<glyph name="eth" format="2">
  <advance width="1114"/>
  <unicode hex="00F0"/>
  <outline>
    <contour>
      <point x="269" y="1470" type="qcurve"/>
      <point x="271" y="1476" type="line"/>
      <point x="608" y="1401"/>
      <point x="1029" y="978"/>
      <point x="1029" y="633" type="qcurve"/>
      <point x="1029" y="535" type="line"/>
      <point x="1029" y="289"/>
      <point x="763" y="-20"/>
      <point x="561" y="-20" type="qcurve" smooth="yes"/>
      <point x="351" y="-20"/>
      <point x="85" y="265"/>
      <point x="85" y="468" type="qcurve" smooth="yes"/>
      <point x="85" y="698"/>
      <point x="340" y="978"/>
      <point x="533" y="978" type="qcurve" smooth="yes"/>
      <point x="702" y="978"/>
      <point x="933" y="749"/>
      <point x="933" y="614" type="qcurve"/>
      <point x="864" y="614" type="line"/>
      <point x="864" y="737"/>
      <point x="720" y="971"/>
      <point x="564" y="971" type="qcurve" smooth="yes"/>
      <point x="431" y="971"/>
      <point x="271" y="695"/>
      <point x="271" y="468" type="qcurve" smooth="yes"/>
      <point x="271" y="276"/>
      <point x="424" y="-13"/>
      <point x="565" y="-13" type="qcurve" smooth="yes"/>
      <point x="693" y="-13"/>
      <point x="843" y="289"/>
      <point x="843" y="535" type="qcurve" smooth="yes"/>
      <point x="843" y="635" type="line" smooth="yes"/>
      <point x="843" y="974"/>
      <point x="518" y="1395"/>
    </contour>
    <contour>
      <point x="900" y="1396" type="line"/>
      <point x="321" y="1102" type="line"/>
      <point x="319" y="1107" type="line"/>
      <point x="898" y="1401" type="line"/>
    </contour>
  </outline>
</glyph>
<glyph name="acutecomb" format="2">
	<unicode hex="0301"/>
	<outline>
		<contour>
			<point x="-79" y="1218" type="line"/>
			<point x="100" y="1611" type="line"/>
			<point x="233" y="1483" type="line"/>
			<point x="-76" y="1215" type="line"/>
		</contour>
	</outline>
	<anchor name="_top" x="0" y="1052"/>
	<anchor name="top" x="0" y="1600"/>
</glyph>
<glyph name="dieresiscomb" format="2">
	<unicode hex="0308"/>
	<outline>
		<contour>
			<point x="-325" y="1319" type="qcurve" smooth="yes"/>
			<point x="-325" y="1364"/>
			<point x="-269" y="1426"/>
			<point x="-216" y="1426" type="qcurve" smooth="yes"/>
			<point x="-162" y="1426"/>
			<point x="-106" y="1364"/>
			<point x="-106" y="1319" type="qcurve" smooth="yes"/>
			<point x="-106" y="1276"/>
			<point x="-162" y="1215"/>
			<point x="-216" y="1215" type="qcurve" smooth="yes"/>
			<point x="-269" y="1215"/>
			<point x="-325" y="1276"/>
		</contour>
		<contour>
			<point x="106" y="1319" type="qcurve" smooth="yes"/>
			<point x="106" y="1364"/>
			<point x="161" y="1426"/>
			<point x="215" y="1426" type="qcurve" smooth="yes"/>
			<point x="268" y="1426"/>
			<point x="325" y="1364"/>
			<point x="325" y="1319" type="qcurve" smooth="yes"/>
			<point x="325" y="1276"/>
			<point x="268" y="1215"/>
			<point x="215" y="1215" type="qcurve" smooth="yes"/>
			<point x="161" y="1215"/>
			<point x="106" y="1276"/>
		</contour>
	</outline>
	<anchor name="_GRK_top" x="0" y="1052"/>
	<anchor name="_top" x="0" y="1052"/>
	<anchor name="top" x="0" y="1431"/>
</glyph>
<glyph name="macronbelowcomb" format="2">
	<unicode hex="0331"/>
	<outline>
		<contour>
			<point x="-296" y="-110" type="line"/>
			<point x="-296" y="-103" type="line"/>
			<point x="296" y="-103" type="line"/>
			<point x="296" y="-110" type="line"/>
		</contour>
	</outline>
	<anchor name="_bottom" x="0" y="0"/>
	<anchor name="bottom" x="0" y="-259"/>
</glyph>
<glyph name="Phi" format="2">
	<unicode hex="03A6"/>
	<advance width="1745"/>
	<outline>
		<contour>
			<point x="780" y="-20" type="line"/>
			<point x="780" y="242" type="line"/>
			<point x="780" y="285" type="line"/>
			<point x="780" y="1192" type="line"/>
			<point x="780" y="1228" type="line"/>
			<point x="780" y="1476" type="line"/>
			<point x="965" y="1476" type="line"/>
			<point x="965" y="1230" type="line"/>
			<point x="965" y="1193" type="line"/>
			<point x="965" y="283" type="line"/>
			<point x="965" y="240" type="line"/>
			<point x="965" y="-20" type="line"/>
		</contour>
		<contour>
			<point x="752" y="194" type="line" smooth="yes"/>
			<point x="435" y="194"/>
			<point x="105" y="486"/>
			<point x="105" y="739" type="qcurve" smooth="yes"/>
			<point x="105" y="992"/>
			<point x="435" y="1283"/>
			<point x="752" y="1283" type="qcurve" smooth="yes"/>
			<point x="993" y="1283" type="line" smooth="yes"/>
			<point x="1310" y="1283"/>
			<point x="1640" y="991"/>
			<point x="1640" y="738" type="qcurve" smooth="yes"/>
			<point x="1640" y="485"/>
			<point x="1310" y="194"/>
			<point x="993" y="194" type="qcurve" smooth="yes"/>
		</contour>
		<contour>
			<point x="752" y="201" type="qcurve" smooth="yes"/>
			<point x="993" y="201" type="line" smooth="yes"/>
			<point x="1216" y="201"/>
			<point x="1455" y="478"/>
			<point x="1455" y="736" type="qcurve" smooth="yes"/>
			<point x="1455" y="996"/>
			<point x="1216" y="1276"/>
			<point x="993" y="1276" type="qcurve" smooth="yes"/>
			<point x="752" y="1276" type="line" smooth="yes"/>
			<point x="529" y="1276"/>
			<point x="290" y="999"/>
			<point x="290" y="741" type="qcurve" smooth="yes"/>
			<point x="290" y="481"/>
			<point x="529" y="201"/>
		</contour>
	</outline>
</glyph>
<glyph name="delta" format="2">
  <advance width="1142"/>
  <unicode hex="03B4"/>
  <outline>
    <contour>
      <point x="561" y="-30" type="qcurve" smooth="yes"/>
      <point x="337" y="-30"/>
      <point x="85" y="231"/>
      <point x="85" y="439" type="qcurve" smooth="yes"/>
      <point x="85" y="469" type="line" smooth="yes"/>
      <point x="85" y="679"/>
      <point x="349" y="932"/>
      <point x="594" y="954" type="qcurve"/>
      <point x="597" y="951" type="line"/>
      <point x="389" y="891"/>
      <point x="274" y="679"/>
      <point x="274" y="492" type="qcurve" smooth="yes"/>
      <point x="274" y="472" type="line" smooth="yes"/>
      <point x="274" y="237"/>
      <point x="429" y="-23"/>
      <point x="561" y="-23" type="qcurve" smooth="yes"/>
      <point x="693" y="-23"/>
      <point x="868" y="235"/>
      <point x="868" y="482" type="qcurve" smooth="yes"/>
      <point x="868" y="501" type="line" smooth="yes"/>
      <point x="868" y="644"/>
      <point x="755" y="842"/>
      <point x="604" y="924" type="qcurve" smooth="yes"/>
      <point x="435" y="1013"/>
      <point x="270" y="1062"/>
      <point x="270" y="1166" type="qcurve" smooth="yes"/>
      <point x="270" y="1303"/>
      <point x="481" y="1476"/>
      <point x="673" y="1476" type="qcurve" smooth="yes"/>
      <point x="773" y="1476"/>
      <point x="918" y="1438"/>
      <point x="979" y="1407" type="qcurve"/>
      <point x="972" y="1404" type="line"/>
      <point x="867" y="1447"/>
      <point x="729" y="1469"/>
      <point x="673" y="1469" type="qcurve" smooth="yes"/>
      <point x="565" y="1469"/>
      <point x="454" y="1300"/>
      <point x="454" y="1171" type="qcurve" smooth="yes"/>
      <point x="454" y="1052"/>
      <point x="520" y="977"/>
      <point x="608" y="930" type="qcurve" smooth="yes"/>
      <point x="904" y="772"/>
      <point x="1057" y="644"/>
      <point x="1057" y="495" type="qcurve" smooth="yes"/>
      <point x="1057" y="466" type="line" smooth="yes"/>
      <point x="1057" y="229"/>
      <point x="773" y="-30"/>
    </contour>
  </outline>
</glyph>
<glyph name="kappa" format="2">
  <advance width="1042"/>
  <unicode hex="03BA"/>
  <outline>
    <contour>
      <point x="828" y="0" type="line"/>
      <point x="353" y="477" type="line"/>
      <point x="468" y="603" type="line"/>
      <point x="1057" y="0" type="line"/>
    </contour>
    <contour>
      <point x="240" y="548" type="line"/>
      <point x="419" y="548" type="line"/>
      <point x="920" y="1052" type="line"/>
      <point x="930" y="1052" type="line"/>
      <point x="420" y="541" type="line"/>
      <point x="240" y="541" type="line"/>
    </contour>
    <contour>
      <point x="333" y="1052" type="line"/>
      <point x="333" y="0" type="line"/>
      <point x="148" y="0" type="line"/>
      <point x="148" y="1052" type="line"/>
    </contour>
  </outline>
</glyph>
<glyph name="mu" format="2">
  <advance width="1206"/>
  <unicode hex="03BC"/>
  <outline>
    <contour>
      <point x="148" y="-416" type="line"/>
      <point x="148" y="1052" type="line"/>
      <point x="334" y="1052" type="line"/>
      <point x="334" y="-416" type="line"/>
    </contour>
    <contour>
      <point x="256" y="227" type="line"/>
      <point x="310" y="104"/>
      <point x="461" y="-13"/>
      <point x="566" y="-13" type="qcurve" smooth="yes"/>
      <point x="673" y="-13"/>
      <point x="814" y="113"/>
      <point x="814" y="194" type="qcurve" smooth="yes"/>
      <point x="814" y="1052" type="line"/>
      <point x="1000" y="1052" type="line"/>
      <point x="1000" y="194" type="line" smooth="yes"/>
      <point x="1000" y="68"/>
      <point x="1046" y="-11"/>
      <point x="1091" y="-11" type="qcurve" smooth="yes"/>
      <point x="1111" y="-11"/>
      <point x="1147" y="3"/>
      <point x="1164" y="12" type="qcurve"/>
      <point x="1164" y="5" type="line"/>
      <point x="1145" y="-4"/>
      <point x="1090" y="-17"/>
      <point x="1054" y="-17" type="qcurve" smooth="yes"/>
      <point x="955" y="-17"/>
      <point x="845" y="59"/>
      <point x="830" y="130" type="qcurve"/>
      <point x="824" y="130" type="line"/>
      <point x="788" y="68"/>
      <point x="654" y="-20"/>
      <point x="566" y="-20" type="qcurve" smooth="yes"/>
      <point x="466" y="-20"/>
      <point x="311" y="91"/>
      <point x="256" y="194" type="qcurve"/>
    </contour>
  </outline>
</glyph>
<glyph name="Lje" format="2">
  <advance width="2036"/>
  <unicode hex="0409"/>
  <outline>
    <contour>
      <point x="95" y="-30" type="qcurve" smooth="yes"/>
      <point x="72" y="-30"/>
      <point x="39" y="-23"/>
      <point x="10" y="-13" type="qcurve"/>
      <point x="10" y="-6" type="line"/>
      <point x="34" y="-14"/>
      <point x="74" y="-23"/>
      <point x="95" y="-23" type="qcurve" smooth="yes"/>
      <point x="197" y="-23"/>
      <point x="272" y="258"/>
      <point x="290" y="575" type="qcurve" smooth="yes"/>
      <point x="339" y="1456" type="line"/>
      <point x="1198" y="1456" type="line"/>
      <point x="1198" y="7" type="line"/>
      <point x="1488" y="7" type="line" smooth="yes"/>
      <point x="1658" y="7"/>
      <point x="1794" y="245"/>
      <point x="1794" y="445" type="qcurve" smooth="yes"/>
      <point x="1794" y="645"/>
      <point x="1658" y="879"/>
      <point x="1488" y="879" type="qcurve" smooth="yes"/>
      <point x="1108" y="879" type="line"/>
      <point x="1108" y="886" type="line"/>
      <point x="1488" y="886" type="line" smooth="yes"/>
      <point x="1728" y="886"/>
      <point x="1986" y="645"/>
      <point x="1986" y="445" type="qcurve" smooth="yes"/>
      <point x="1986" y="245"/>
      <point x="1728" y="0"/>
      <point x="1488" y="0" type="qcurve" smooth="yes"/>
      <point x="1006" y="0" type="line"/>
      <point x="1006" y="1449" type="line"/>
      <point x="510" y="1449" type="line"/>
      <point x="468" y="542" type="line" smooth="yes"/>
      <point x="455" y="258"/>
      <point x="312" y="-30"/>
    </contour>
  </outline>
</glyph>
<glyph name="Nje" format="2">
  <advance width="2026"/>
  <unicode hex="040A"/>
  <outline>
    <contour>
      <point x="170" y="0" type="line"/>
      <point x="362" y="0" type="line"/>
      <point x="362" y="1456" type="line"/>
      <point x="170" y="1456" type="line"/>
    </contour>
    <contour>
      <point x="996" y="0" type="line"/>
      <point x="1478" y="0" type="line" smooth="yes"/>
      <point x="1718" y="0"/>
      <point x="1976" y="184"/>
      <point x="1976" y="381" type="qcurve" smooth="yes"/>
      <point x="1976" y="577"/>
      <point x="1718" y="763"/>
      <point x="1478" y="763" type="qcurve" smooth="yes"/>
      <point x="1117" y="763" type="line"/>
      <point x="1117" y="756" type="line"/>
      <point x="1478" y="756" type="line" smooth="yes"/>
      <point x="1648" y="756"/>
      <point x="1784" y="566"/>
      <point x="1784" y="381" type="qcurve" smooth="yes"/>
      <point x="1784" y="196"/>
      <point x="1648" y="7"/>
      <point x="1478" y="7" type="qcurve" smooth="yes"/>
      <point x="1188" y="7" type="line"/>
      <point x="1188" y="1456" type="line"/>
      <point x="996" y="1456" type="line"/>
    </contour>
    <contour>
      <point x="272" y="756" type="line"/>
      <point x="1085" y="756" type="line"/>
      <point x="1085" y="763" type="line"/>
      <point x="272" y="763" type="line"/>
    </contour>
  </outline>
</glyph>
<glyph name="Hard" format="2">
	<unicode hex="042A"/>
	<advance width="1329"/>
	<outline>
		<contour>
			<point x="299" y="0" type="line"/>
			<point x="299" y="1449" type="line"/>
			<point x="24" y="1449" type="line"/>
			<point x="24" y="1456" type="line"/>
			<point x="491" y="1456" type="line"/>
			<point x="491" y="7" type="line"/>
			<point x="781" y="7" type="line" smooth="yes"/>
			<point x="950" y="7"/>
			<point x="1087" y="252"/>
			<point x="1087" y="445" type="qcurve" smooth="yes"/>
			<point x="1087" y="641"/>
			<point x="949" y="879"/>
			<point x="781" y="879" type="qcurve" smooth="yes"/>
			<point x="406" y="879" type="line"/>
			<point x="406" y="886" type="line"/>
			<point x="781" y="886" type="line" smooth="yes"/>
			<point x="1021" y="886"/>
			<point x="1279" y="645"/>
			<point x="1279" y="445" type="qcurve" smooth="yes"/>
			<point x="1279" y="245"/>
			<point x="1021" y="0"/>
			<point x="781" y="0" type="qcurve" smooth="yes"/>
		</contour>
	</outline>
</glyph>
<glyph name="Soft" format="2">
	<unicode hex="042C"/>
	<advance width="1200"/>
	<outline>
		<contour>
			<point x="170" y="0" type="line"/>
			<point x="170" y="1456" type="line"/>
			<point x="362" y="1456" type="line"/>
			<point x="362" y="7" type="line"/>
			<point x="652" y="7" type="line" smooth="yes"/>
			<point x="821" y="7"/>
			<point x="958" y="252"/>
			<point x="958" y="445" type="qcurve" smooth="yes"/>
			<point x="958" y="641"/>
			<point x="820" y="879"/>
			<point x="652" y="879" type="qcurve" smooth="yes"/>
			<point x="272" y="879" type="line"/>
			<point x="272" y="886" type="line"/>
			<point x="652" y="886" type="line" smooth="yes"/>
			<point x="892" y="886"/>
			<point x="1150" y="645"/>
			<point x="1150" y="445" type="qcurve" smooth="yes"/>
			<point x="1150" y="245"/>
			<point x="892" y="0"/>
			<point x="652" y="0" type="qcurve" smooth="yes"/>
		</contour>
	</outline>
</glyph>
<glyph name="ghe" format="2">
	<unicode hex="0433"/>
	<advance width="864"/>
	<outline>
		<contour>
			<point x="148" y="1052" type="line"/>
			<point x="834" y="1052" type="line"/>
			<point x="834" y="1045" type="line"/>
			<point x="334" y="1045" type="line"/>
			<point x="334" y="0" type="line"/>
			<point x="148" y="0" type="line"/>
		</contour>
	</outline>
	<anchor name="top" x="505" y="1052"/>
</glyph>
<glyph name="che" format="2">
  <advance width="1095"/>
  <unicode hex="0447"/>
  <guideline x="855" y="515" angle="90" identifier="GGEFes61Q6"/>
  <anchor x="855" y="0" name="cy_descender"/>
  <outline>
    <contour>
      <point x="311" y="773" type="line" smooth="yes"/>
      <point x="311" y="583"/>
      <point x="410" y="403"/>
      <point x="533" y="403" type="qcurve" smooth="yes"/>
      <point x="601" y="403"/>
      <point x="766" y="429"/>
      <point x="854" y="451" type="qcurve"/>
      <point x="854" y="444" type="line"/>
      <point x="741" y="419"/>
      <point x="589" y="396"/>
      <point x="533" y="396" type="qcurve" smooth="yes"/>
      <point x="301" y="396"/>
      <point x="125" y="583"/>
      <point x="125" y="773" type="qcurve" smooth="yes"/>
      <point x="125" y="1052" type="line"/>
      <point x="311" y="1052" type="line"/>
    </contour>
    <contour>
      <point x="947" y="1052" type="line"/>
      <point x="947" y="0" type="line"/>
      <point x="761" y="0" type="line"/>
      <point x="761" y="1052" type="line"/>
    </contour>
  </outline>
</glyph>
<glyph name="ieukran" format="2">
  <advance width="1068"/>
  <unicode hex="0454"/>
  <guideline x="180" y="548" angle="90" identifier="n4jm0tBg3Y"/>
  <outline>
    <contour>
      <point x="85" y="510" type="qcurve" smooth="yes"/>
      <point x="85" y="542" type="line" smooth="yes"/>
      <point x="85" y="791"/>
      <point x="344" y="1082"/>
      <point x="571" y="1082" type="qcurve" smooth="yes"/>
      <point x="781" y="1082"/>
      <point x="999" y="855"/>
      <point x="999" y="715" type="qcurve" smooth="yes"/>
      <point x="999" y="710" type="line"/>
      <point x="819" y="710" type="line"/>
      <point x="819" y="715" type="line" smooth="yes"/>
      <point x="819" y="855"/>
      <point x="701" y="1075"/>
      <point x="571" y="1075" type="qcurve" smooth="yes"/>
      <point x="421" y="1075"/>
      <point x="269" y="791"/>
      <point x="269" y="564" type="qcurve" smooth="yes"/>
      <point x="269" y="500" type="line" smooth="yes"/>
      <point x="269" y="268"/>
      <point x="421" y="-23"/>
      <point x="571" y="-23" type="qcurve" smooth="yes"/>
      <point x="701" y="-23"/>
      <point x="819" y="197"/>
      <point x="819" y="337" type="qcurve" smooth="yes"/>
      <point x="819" y="342" type="line"/>
      <point x="999" y="342" type="line"/>
      <point x="999" y="337" type="line" smooth="yes"/>
      <point x="999" y="197"/>
      <point x="781" y="-30"/>
      <point x="571" y="-30" type="qcurve" smooth="yes"/>
      <point x="344" y="-30"/>
      <point x="85" y="268"/>
    </contour>
    <contour>
      <point x="179" y="543" type="line"/>
      <point x="710" y="543" type="line"/>
      <point x="710" y="536" type="line"/>
      <point x="179" y="536" type="line"/>
    </contour>
  </outline>
</glyph>
<glyph name="quoteright" format="2">
  <advance width="410"/>
  <unicode hex="2019"/>
  <outline>
    <contour>
      <point x="317" y="1456" type="line"/>
      <point x="317" y="1335" type="line" smooth="yes"/>
      <point x="317" y="1245"/>
      <point x="126" y="1075"/>
      <point x="43" y="1007" type="qcurve"/>
      <point x="39" y="1010" type="line"/>
      <point x="115" y="1087"/>
      <point x="134" y="1251"/>
      <point x="134" y="1332" type="qcurve" smooth="yes"/>
      <point x="134" y="1456" type="line"/>
    </contour>
  </outline>
</glyph>
<glyph name="franc" format="2">
  <advance width="1024"/>
  <unicode hex="20A3"/>
  <outline>
    <contour>
      <point x="180" y="0" type="line"/>
      <point x="180" y="1456" type="line"/>
      <point x="1002" y="1456" type="line"/>
      <point x="1002" y="1449" type="line"/>
      <point x="372" y="1449" type="line"/>
      <point x="372" y="0" type="line"/>
    </contour>
    <contour>
      <point x="20" y="370" type="line"/>
      <point x="20" y="377" type="line"/>
      <point x="725" y="377" type="line"/>
      <point x="725" y="370" type="line"/>
    </contour>
    <contour>
      <point x="282" y="781" type="line"/>
      <point x="282" y="788" type="line"/>
      <point x="913" y="788" type="line"/>
      <point x="913" y="781" type="line"/>
    </contour>
  </outline>
</glyph>
<glyph name="uni20AD" format="2">
  <advance width="1041"/>
  <unicode hex="20AD"/>
  <outline>
    <contour>
      <point x="130" y="0" type="line"/>
      <point x="130" y="1456" type="line"/>
      <point x="317" y="1456" type="line"/>
      <point x="317" y="0" type="line"/>
    </contour>
    <contour>
      <point x="845" y="0" type="line"/>
      <point x="404" y="780" type="line"/>
      <point x="516" y="925" type="line"/>
      <point x="1061" y="0" type="line"/>
    </contour>
    <contour>
      <point x="225" y="495" type="line"/>
      <point x="225" y="507" type="line"/>
      <point x="835" y="1456" type="line"/>
      <point x="843" y="1456" type="line"/>
    </contour>
    <contour>
      <point x="-9" y="735" type="line"/>
      <point x="-9" y="742" type="line"/>
      <point x="226" y="742" type="line"/>
      <point x="226" y="742" type="line"/>
      <point x="555" y="742" type="line"/>
      <point x="555" y="742" type="line"/>
      <point x="973" y="742" type="line"/>
      <point x="973" y="735" type="line"/>
      <point x="555" y="735" type="line"/>
      <point x="555" y="735" type="line"/>
      <point x="226" y="735" type="line"/>
      <point x="226" y="735" type="line"/>
    </contour>
  </outline>
</glyph>
<glyph name="hryvnia" format="2">
  <advance width="1024"/>
  <unicode hex="20B4"/>
  <outline>
    <contour>
      <point x="78" y="334" type="qcurve" smooth="yes"/>
      <point x="78" y="458"/>
      <point x="222" y="655"/>
      <point x="456" y="797" type="qcurve" smooth="yes"/>
      <point x="674" y="928"/>
      <point x="776" y="1054"/>
      <point x="776" y="1146" type="qcurve" smooth="yes"/>
      <point x="776" y="1304"/>
      <point x="652" y="1479"/>
      <point x="536" y="1479" type="qcurve" smooth="yes"/>
      <point x="423" y="1479"/>
      <point x="286" y="1324"/>
      <point x="280" y="1172" type="qcurve" smooth="yes"/>
      <point x="279" y="1146" type="line"/>
      <point x="107" y="1146" type="line"/>
      <point x="108" y="1172" type="line" smooth="yes"/>
      <point x="114" y="1325"/>
      <point x="343" y="1486"/>
      <point x="538" y="1486" type="qcurve" smooth="yes"/>
      <point x="737" y="1486"/>
      <point x="949" y="1305"/>
      <point x="949" y="1136" type="qcurve" smooth="yes"/>
      <point x="949" y="1043"/>
      <point x="802" y="871"/>
      <point x="515" y="698" type="qcurve" smooth="yes"/>
      <point x="341" y="594"/>
      <point x="252" y="449"/>
      <point x="252" y="348" type="qcurve" smooth="yes"/>
      <point x="252" y="162"/>
      <point x="381" y="-23"/>
      <point x="523" y="-23" type="qcurve" smooth="yes"/>
      <point x="663" y="-23"/>
      <point x="799" y="142"/>
      <point x="812" y="313" type="qcurve" smooth="yes"/>
      <point x="813" y="326" type="line"/>
      <point x="990" y="326" type="line"/>
      <point x="989" y="313" type="line" smooth="yes"/>
      <point x="976" y="143"/>
      <point x="721" y="-30"/>
      <point x="523" y="-30" type="qcurve" smooth="yes"/>
      <point x="309" y="-30"/>
      <point x="78" y="159"/>
    </contour>
    <contour>
      <point x="-10" y="899" type="line"/>
      <point x="-10" y="906" type="line"/>
      <point x="1033" y="906" type="line"/>
      <point x="1033" y="899" type="line"/>
    </contour>
    <contour>
      <point x="-10" y="579" type="line"/>
      <point x="-10" y="586" type="line"/>
      <point x="1033" y="586" type="line"/>
      <point x="1033" y="579" type="line"/>
    </contour>
  </outline>
</glyph>
<glyph name="rightanglebracket" format="2">
  <advance width="619"/>
  <unicode hex="27E9"/>
  <outline>
    <contour>
      <point x="0" y="-301" type="line"/>
      <point x="416" y="591" type="line"/>
      <point x="0" y="1496" type="line"/>
      <point x="5" y="1499" type="line"/>
      <point x="607" y="659" type="line"/>
      <point x="607" y="530" type="line"/>
      <point x="5" y="-304" type="line"/>
    </contour>
  </outline>
</glyph>
<glyph name="Yu-dash.case" format="2">
	<advance width="557"/>
	<outline>
		<contour>
			<point x="0" y="747" type="line"/>
			<point x="0" y="754" type="line"/>
			<point x="557" y="754" type="line"/>
			<point x="557" y="747" type="line"/>
		</contour>
	</outline>
	<anchor name="_yu_dash" x="0" y="750"/>
	<anchor name="yu_dash" x="557" y="750"/>
</glyph>
<glyph name="be.locl" format="2">
  <advance width="1162"/>
  <outline>
    <contour>
      <point x="275" y="522" type="qcurve" smooth="yes"/>
      <point x="275" y="490" type="line" smooth="yes"/>
      <point x="275" y="261"/>
      <point x="429" y="-23"/>
      <point x="581" y="-23" type="qcurve" smooth="yes"/>
      <point x="734" y="-23"/>
      <point x="887" y="261"/>
      <point x="887" y="490" type="qcurve" smooth="yes"/>
      <point x="887" y="522" type="line" smooth="yes"/>
      <point x="887" y="724"/>
      <point x="732" y="964"/>
      <point x="581" y="964" type="qcurve" smooth="yes"/>
      <point x="426" y="964"/>
      <point x="275" y="677"/>
    </contour>
    <contour>
      <point x="85" y="490" type="qcurve" smooth="yes"/>
      <point x="85" y="522" type="line" smooth="yes"/>
      <point x="85" y="676.4651379813"/>
      <point x="296" y="945"/>
      <point x="439" y="969" type="qcurve"/>
      <point x="439" y="973" type="line"/>
      <point x="329" y="976"/>
      <point x="145" y="1089"/>
      <point x="145" y="1180" type="qcurve" smooth="yes"/>
      <point x="145" y="1235"/>
      <point x="331" y="1346"/>
      <point x="556" y="1346" type="qcurve" smooth="yes"/>
      <point x="653" y="1346" type="line" smooth="yes"/>
      <point x="852" y="1346"/>
      <point x="1010" y="1388"/>
      <point x="1018" y="1456" type="qcurve"/>
      <point x="1025" y="1456" type="line"/>
      <point x="1017" y="1383"/>
      <point x="855" y="1339"/>
      <point x="653" y="1339" type="qcurve" smooth="yes"/>
      <point x="556" y="1339" type="line" smooth="yes"/>
      <point x="428" y="1339"/>
      <point x="322" y="1235"/>
      <point x="322" y="1164" type="qcurve" smooth="yes"/>
      <point x="322" y="1090"/>
      <point x="466" y="980"/>
      <point x="581" y="971" type="qcurve" smooth="yes"/>
      <point x="824" y="953"/>
      <point x="1077" y="724"/>
      <point x="1077" y="522" type="qcurve" smooth="yes"/>
      <point x="1077" y="490" type="line" smooth="yes"/>
      <point x="1077" y="261"/>
      <point x="807" y="-30"/>
      <point x="581" y="-30" type="qcurve" smooth="yes"/>
      <point x="355" y="-30"/>
      <point x="85" y="261"/>
    </contour>
  </outline>
</glyph>
<glyph name="breve.cyrcomb.case" format="2">
  <anchor x="0" y="1456" name="_top"/>
  <anchor x="0" y="1939" name="top"/>
  <outline>
    <contour>
      <point x="0" y="1758" type="qcurve" smooth="yes"/>
      <point x="76" y="1758"/>
      <point x="198" y="1773"/>
      <point x="233" y="1853" type="qcurve"/>
      <point x="239" y="1849" type="line"/>
      <point x="203" y="1716"/>
      <point x="75" y="1600"/>
      <point x="0" y="1600" type="qcurve" smooth="yes"/>
      <point x="-77" y="1600"/>
      <point x="-203" y="1716"/>
      <point x="-239" y="1849" type="qcurve"/>
      <point x="-233" y="1853" type="line"/>
      <point x="-198" y="1773"/>
      <point x="-77" y="1758"/>
    </contour>
  </outline>
</glyph>
<glyph name="breve.cyrcomb" format="2">
  <anchor x="0" y="1052" name="_top"/>
  <anchor x="0" y="1534" name="top"/>
  <outline>
    <contour>
      <point x="0" y="1366" type="qcurve"/>
      <point x="69" y="1366"/>
      <point x="161" y="1393"/>
      <point x="190" y="1488" type="qcurve"/>
      <point x="197" y="1486" type="line"/>
      <point x="168" y="1364"/>
      <point x="79" y="1218"/>
      <point x="0" y="1218" type="qcurve"/>
      <point x="-78" y="1218"/>
      <point x="-168" y="1364"/>
      <point x="-197" y="1486" type="qcurve"/>
      <point x="-190" y="1488" type="line"/>
      <point x="-161" y="1393"/>
      <point x="-69" y="1366"/>
    </contour>
  </outline>
</glyph>
<glyph name="brevebelowcomb.case" format="2">
  <anchor x="0" y="0" name="_bottom"/>
  <anchor x="0" y="-468" name="bottom"/>
  <outline>
    <contour>
      <point x="0" y="-468" type="qcurve"/>
      <point x="-98" y="-468"/>
      <point x="-260" y="-315"/>
      <point x="-289" y="-201" type="qcurve"/>
      <point x="-283" y="-199" type="line"/>
      <point x="-240" y="-263"/>
      <point x="-95" y="-299"/>
      <point x="0" y="-299" type="qcurve"/>
      <point x="94" y="-299"/>
      <point x="240" y="-263"/>
      <point x="283" y="-199" type="qcurve"/>
      <point x="289" y="-201" type="line"/>
      <point x="260" y="-315"/>
      <point x="98" y="-468"/>
    </contour>
  </outline>
</glyph>
<glyph name="brevecomb-stack.case" format="2">
  <anchor x="0.0" y="1456" name="_top"/>
  <anchor x="0" y="1828" name="top"/>
  <outline>
    <contour>
      <point x="0" y="1597" type="qcurve"/>
      <point x="-89" y="1597"/>
      <point x="-248" y="1740"/>
      <point x="-289" y="1864" type="qcurve"/>
      <point x="-283" y="1866" type="line"/>
      <point x="-240" y="1802"/>
      <point x="-85" y="1756"/>
      <point x="0" y="1756" type="qcurve"/>
      <point x="84" y="1756"/>
      <point x="240" y="1802"/>
      <point x="283" y="1866" type="qcurve"/>
      <point x="289" y="1864" type="line"/>
      <point x="250" y="1740"/>
      <point x="87" y="1597"/>
    </contour>
  </outline>
</glyph>
<glyph name="breveinvertedcomb.case" format="2">
  <anchor x="0" y="1456" name="_top"/>
  <anchor x="0" y="1936" name="top"/>
  <outline>
    <contour>
      <point x="-283" y="1666" type="qcurve"/>
      <point x="-289" y="1668" type="line"/>
      <point x="-246" y="1795"/>
      <point x="-98" y="1935"/>
      <point x="0" y="1935" type="qcurve"/>
      <point x="98" y="1935"/>
      <point x="246" y="1794"/>
      <point x="289" y="1668" type="qcurve"/>
      <point x="283" y="1666" type="line"/>
      <point x="240" y="1730"/>
      <point x="95" y="1766"/>
      <point x="0" y="1766" type="qcurve"/>
      <point x="-94" y="1766"/>
      <point x="-240" y="1730"/>
    </contour>
  </outline>
</glyph>
<glyph name="cedillacomb.case" format="2">
  <anchor x="0" y="0" name="_bottom"/>
  <anchor x="0" y="-517" name="bottom"/>
  <outline>
    <contour>
      <point x="-82" y="20" type="line"/>
      <point x="57" y="20" type="line"/>
      <point x="29" y="-105" type="line"/>
      <point x="108" y="-119"/>
      <point x="232" y="-191"/>
      <point x="232" y="-268" type="qcurve" smooth="yes"/>
      <point x="232" y="-366"/>
      <point x="38" y="-462"/>
      <point x="-150" y="-462" type="qcurve"/>
      <point x="-150" y="-455" type="line"/>
      <point x="-59" y="-455"/>
      <point x="30" y="-373"/>
      <point x="30" y="-270" type="qcurve" smooth="yes"/>
      <point x="30" y="-193"/>
      <point x="-25" y="-120"/>
      <point x="-108" y="-111" type="qcurve"/>
    </contour>
  </outline>
</glyph>
<glyph name="cent.rvrn" format="2">
  <advance width="1024"/>
  <outline>
    <contour>
      <point x="547" y="137" type="qcurve" smooth="yes"/>
      <point x="656" y="137"/>
      <point x="788" y="321"/>
      <point x="802" y="492" type="qcurve"/>
      <point x="978" y="492" type="line"/>
      <point x="968" y="318"/>
      <point x="745" y="130"/>
      <point x="547" y="130" type="qcurve" smooth="yes"/>
      <point x="315" y="130"/>
      <point x="65" y="410"/>
      <point x="65" y="670" type="qcurve" smooth="yes"/>
      <point x="65" y="712" type="line" smooth="yes"/>
      <point x="65" y="972"/>
      <point x="315" y="1252"/>
      <point x="547" y="1252" type="qcurve" smooth="yes"/>
      <point x="747" y="1252"/>
      <point x="970" y="1049"/>
      <point x="978" y="860" type="qcurve"/>
      <point x="802" y="860" type="line"/>
      <point x="789" y="1046"/>
      <point x="657" y="1245"/>
      <point x="547" y="1245" type="qcurve" smooth="yes"/>
      <point x="404" y="1245"/>
      <point x="251" y="969"/>
      <point x="251" y="712" type="qcurve" smooth="yes"/>
      <point x="251" y="670" type="line" smooth="yes"/>
      <point x="251" y="413"/>
      <point x="404" y="137"/>
    </contour>
    <contour>
      <point x="469" y="0" type="line"/>
      <point x="469" y="135" type="line"/>
      <point x="474" y="135" type="line"/>
      <point x="474" y="135" type="line"/>
      <point x="614" y="135" type="line"/>
      <point x="614" y="135" type="line"/>
      <point x="619" y="135" type="line"/>
      <point x="619" y="0" type="line"/>
    </contour>
    <contour>
      <point x="474" y="1246" type="line"/>
      <point x="474" y="1246" type="line"/>
      <point x="469" y="1246" type="line"/>
      <point x="469" y="1402" type="line"/>
      <point x="619" y="1402" type="line"/>
      <point x="619" y="1246" type="line"/>
      <point x="614" y="1246" type="line"/>
      <point x="614" y="1246" type="line"/>
    </contour>
  </outline>
</glyph>
<glyph name="dollar.rvrn" format="2">
  <advance width="1024"/>
  <outline>
    <contour>
      <point x="21" y="381" type="qcurve" smooth="yes"/>
      <point x="21" y="392" type="line"/>
      <point x="198" y="392" type="line"/>
      <point x="198" y="381" type="line" smooth="yes"/>
      <point x="198" y="200"/>
      <point x="366" y="1"/>
      <point x="511" y="1" type="qcurve" smooth="yes"/>
      <point x="655" y="1"/>
      <point x="816" y="201"/>
      <point x="816" y="365" type="qcurve" smooth="yes"/>
      <point x="816" y="455"/>
      <point x="671" y="608"/>
      <point x="451" y="670" type="qcurve" smooth="yes"/>
      <point x="232" y="731"/>
      <point x="49" y="946"/>
      <point x="49" y="1099" type="qcurve" smooth="yes"/>
      <point x="49" y="1254"/>
      <point x="289" y="1458"/>
      <point x="501" y="1458" type="qcurve" smooth="yes"/>
      <point x="714" y="1458"/>
      <point x="965" y="1235"/>
      <point x="965" y="1076" type="qcurve" smooth="yes"/>
      <point x="965" y="1065" type="line"/>
      <point x="788" y="1065" type="line"/>
      <point x="788" y="1076" type="line" smooth="yes"/>
      <point x="788" y="1246"/>
      <point x="639" y="1451"/>
      <point x="501" y="1451" type="qcurve" smooth="yes"/>
      <point x="361" y="1451"/>
      <point x="224" y="1260"/>
      <point x="224" y="1099" type="qcurve" smooth="yes"/>
      <point x="224" y="1018"/>
      <point x="363" y="873"/>
      <point x="579" y="812" type="qcurve" smooth="yes"/>
      <point x="794" y="752"/>
      <point x="991" y="527"/>
      <point x="991" y="365" type="qcurve" smooth="yes"/>
      <point x="991" y="202"/>
      <point x="732" y="-6"/>
      <point x="511" y="-6" type="qcurve" smooth="yes"/>
      <point x="289" y="-6"/>
      <point x="21" y="202"/>
    </contour>
    <contour>
      <point x="436" y="-170" type="line"/>
      <point x="436" y="-1" type="line"/>
      <point x="572" y="-1" type="line"/>
      <point x="572" y="-1" type="line"/>
      <point x="586" y="-1" type="line"/>
      <point x="586" y="-170" type="line"/>
    </contour>
    <contour>
      <point x="450" y="1452" type="line"/>
      <point x="450" y="1454" type="line"/>
      <point x="436" y="1454" type="line"/>
      <point x="436" y="1586" type="line"/>
      <point x="586" y="1586" type="line"/>
      <point x="586" y="1452" type="line"/>
    </contour>
  </outline>
</glyph>
<glyph name="horizontalbarlc" format="2">
  <advance width="647"/>
  <anchor x="323" y="730" name="_center"/>
  <outline>
    <contour>
      <point x="302" y="727" type="line"/>
      <point x="20" y="727" type="line"/>
      <point x="21" y="734" type="line"/>
      <point x="342" y="734" type="line"/>
      <point x="627" y="734" type="line"/>
      <point x="627" y="727" type="line"/>
    </contour>
  </outline>
</glyph>
<glyph name="obarcyr-stroke" format="2">
	<advance width="1162"/>
	<outline>
		<contour>
			<point x="180" y="542" type="line"/>
			<point x="982" y="542" type="line"/>
			<point x="982" y="535" type="line"/>
			<point x="180" y="535" type="line"/>
		</contour>
	</outline>
	<guideline x="182" y="511" angle="90" identifier="HuPjA4mSCL"/>
	<guideline x="982" y="610" angle="90" identifier="F596JbvFPy"/>
</glyph>
